<svg xmlns="http://www.w3.org/2000/svg" width="64" height="64" viewBox="0 0 64 64" fill="none">
  <rect width="64" height="64" rx="14" fill="#0b1020"/>
  <path d="M32 8 50 18.5 32 29 14 18.5 32 8Z" fill="#8b5cf6" fill-opacity=".25" stroke="#8b5cf6" stroke-width="2.5" stroke-linejoin="round"/>
  <path d="M14 18.5V39.5L32 56V29L14 18.5Z" fill="#38bdf8" fill-opacity=".18" stroke="#38bdf8" stroke-width="2.5" stroke-linejoin="round"/>
  <path d="M50 18.5V39.5L32 56V29L50 18.5Z" fill="#22c55e" fill-opacity=".16" stroke="#22c55e" stroke-width="2.5" stroke-linejoin="round"/>
  <path d="M26 33h5.2c2.5 0 4.3 1.5 4.3 3.7 0 2.3-1.8 3.9-4.3 3.9H26V33Zm4.8-5.2c2.4 0 4-1.4 4-3.4s-1.6-3.4-4-3.4H26v6.8h4.8Z" fill="#f8fafc"/>
  <path d="M39 21h2.8c4.1 0 6.7 2.5 6.7 6.2 0 3.8-2.6 6.3-6.7 6.3H39" stroke="#f8fafc" stroke-width="2.4" stroke-linecap="round" stroke-linejoin="round"/>
</svg>
